# xmcd
#
# Track frame offsets: 
#        150
#        7719
#        18393
#        32206
#        50014
#        57349
#        61901
#        75385
#        88524
#        102620
#        129978
#        147840
#        161007
#
# Disc length: 2419 seconds
#
# Revision: 0
# Processed by: cddbd v1.5.2PL0 Copyright (c) Steve Scherf et al.
# Submitted via: ExactAudioCopy v0.99pb5
#
DISCID=a009710d
DTITLE=Soundtrack - Fair Game - John Powell
DYEAR=2010
DGENRE=Soundtrack
TTITLE0=Kuala Lumpur
TTITLE1=The White House
TTITLE2=Gathering Intel
TTITLE3=Joe`s Report
TTITLE4=Bruises
TTITLE5=Smaky
TTITLE6=Sixteen Words
TTITLE7=Run Up To War
TTITLE8=Change The Story
TTITLE9=Uncomfortable Love
TTITLE10=Breaking Point
TTITLE11=Ready To Fight
TTITLE12=Testify
EXTD=
EXTT0=
EXTT1=
EXTT2=
EXTT3=
EXTT4=
EXTT5=
EXTT6=
EXTT7=
EXTT8=
EXTT9=
EXTT10=
EXTT11=
EXTT12=
PLAYORDER=
